<svg width="45" height="35" viewBox="0 0 45 35" fill="none" xmlns="http://www.w3.org/2000/svg">
<path d="M7.74627 32.6947C8.70432 32.1647 9.59795 31.5182 10.4056 30.7667C12.0512 29.2356 13.2876 27.3176 14.0024 25.1872C14.7172 23.0569 14.8877 20.7818 14.4983 18.5688C14.3542 17.7497 14.135 16.9486 13.8451 16.1754L20.4663 14.4703C21.0191 16.6139 21.144 18.8453 20.8338 21.0371C20.5237 23.2289 19.7845 25.3382 18.6585 27.2446C17.5326 29.1509 16.0419 30.817 14.2716 32.1477C12.5012 33.4784 10.486 34.4476 8.3408 35L7.74627 32.6947Z" fill="#C5FF74"/>
<path d="M20.9815 18.8764C20.9815 20.0305 20.0453 20.9661 18.8904 20.9661H-3.67965e-07V-1.26305e-06H20.9815V18.8764Z" fill="#C5FF74"/>
<path d="M31.7463 32.6947C32.7043 32.1647 33.598 31.5182 34.4056 30.7667C36.0512 29.2356 37.2876 27.3176 38.0024 25.1872C38.7172 23.0569 38.8877 20.7818 38.4983 18.5688C38.3542 17.7497 38.135 16.9486 37.8451 16.1754L44.4663 14.4703C45.0191 16.6139 45.144 18.8453 44.8338 21.0371C44.5237 23.2289 43.7845 25.3382 42.6585 27.2446C41.5326 29.1509 40.0419 30.817 38.2716 32.1477C36.5012 33.4784 34.486 34.4476 32.3408 35L31.7463 32.6947Z" fill="#C5FF74"/>
<path d="M44.9815 18.8764C44.9815 20.0305 44.0453 20.9661 42.8904 20.9661H24V-1.26305e-06H44.9815V18.8764Z" fill="#C5FF74"/>
</svg>
